<?xml version="1.0" encoding="UTF-8"?>
<svg id="Layer_1" data-name="Layer 1" xmlns="http://www.w3.org/2000/svg" viewBox="0 0 612 617.54">
  <defs>
    <style>
      .cls-1 {
        stroke-width: 5.7px;
      }

      .cls-1, .cls-2, .cls-3, .cls-4 {
        fill: none;
      }

      .cls-1, .cls-3, .cls-4 {
        stroke: #fff;
      }

      .cls-5, .cls-6 {
        fill: #fff;
      }

      .cls-5, .cls-6, .cls-2 {
        stroke: #000;
      }

      .cls-5, .cls-6, .cls-2, .cls-3 {
        stroke-width: 2.7px;
      }

      .cls-6, .cls-3, .cls-4 {
        stroke-linejoin: round;
      }

      .cls-4 {
        stroke-width: 2.6px;
      }
    </style>
  </defs>
  <path id="path971" class="cls-3" d="M138.09,535.68C37.69,463.28-4.71,334.48,32.89,216.58,70.49,98.68,179.69,18.28,303.49,17.48c123.8-.9,234.1,78,273.4,195.3,39.3,117.4-1.4,246.7-100.8,320.5"/>
  <path id="path971-6" class="cls-3" d="M142.49,528.88C44.69,458.38,3.39,332.98,39.99,218.18,76.69,103.28,182.99,25.08,303.59,24.28c120.5-.8,227.9,75.9,266.2,190.2,38.2,114.3-1.3,240.3-98.1,312.1"/>
  <path id="path971-6-1" class="cls-3" d="M168.79,488.18c-82-59.1-116.7-164.3-85.9-260.6,30.7-96.3,119.9-161.9,221-162.6,101.1-.7,191.2,63.7,223.2,159.5,32.1,95.9-1.1,201.5-82.3,261.7"/>
  <path id="path971-6-1-5" class="cls-4" d="M173.19,481.38c-79.4-57.2-112.9-159-83.2-252.2s116-156.7,213.9-157.4c97.8-.7,185,61.6,216.1,154.4,31.1,92.8-1.1,195-79.6,253.3"/>
  <path id="path971-6-1-5-7" class="cls-3" d="M189.29,456.48c-69.7-50.3-99.2-139.7-73-221.5s101.9-137.7,187.9-138.3c85.9-.6,162.5,54.1,189.8,135.6s-1,171.3-69.9,222.5"/>
  <path id="path971-6-1-5-7-8" class="cls-3" d="M184.79,463.38c-72.4-52.2-103-145-75.9-230.1,27.1-85,105.9-143,195.1-143.6,89.3-.6,168.8,56.2,197.1,140.9,28.3,84.6-1,177.9-72.6,231.1"/>
  <circle id="path971-6-1-5-7-7" class="cls-3" cx="305.49" cy="292.38" r="151.2"/>
  <circle id="path971-6-1-5-7-7-7" class="cls-3" cx="305.49" cy="292.38" r="143.7"/>
  <path id="path1069" class="cls-5" d="M322.19,320.48l21.6,3.3,6.6-6.1,118.6,119.5-30.4,30.2-119-119.9,5.1-5.1-2.5-21.9M284.19,279.08l-23-2.6-6.1,6.1-118.8-119.8,30.3-30.2,119.1,120.1-5.3,5,3.8,21.5"/>
  <path id="path1071" class="cls-2" d="M261.19,276.48l19.2-18.9,3.8,21.5-23-2.6Z"/>
  <path id="path1073" class="cls-2" d="M324.69,342.38l-2.5-21.9,21.6,3.3-19.1,18.6Z"/>
  <path id="path1075" class="cls-5" d="M143.99,441.58l17.7,15.3,233.7-199.9-48.8-48.2-202.5,232.7h-.1v.1Z"/>
  <path id="path1077" class="cls-6" d="M346.49,208.88l55.9-57.7c26.2,10,40.1,28.9,50.4,50.4l-57.4,55.5-48.8-48.2h-.1Z"/>
  <path id="path1077-9" class="cls-6" d="M346.49,208.88l55.9-57.7c9.7,26.2,28.6,40.1,50.4,50.4l-57.4,55.5-48.8-48.2h-.1Z"/>
  <g id="g1163">
    <path id="path1096" class="cls-1" d="M105.19,595.18l115-135.3"/>
    <path id="path1098" class="cls-1" d="M205.99,595.38l56.8-135.5"/>
    <path id="path1100" class="cls-1" d="M303.09,595.78l.8-135.9"/>
    <path id="path1096-3" class="cls-1" d="M503.69,595.18l-115-135.3"/>
    <path id="path1098-6" class="cls-1" d="M402.89,595.38l-56.8-135.5"/>
    <path id="path1122" class="cls-1" d="M432.59,477.38h-254.3"/>
    <path id="path1122-8" class="cls-1" d="M458.09,503.78H152.89"/>
    <path id="path1122-9" class="cls-1" d="M488.59,541.08H122.39"/>
    <path id="path1122-0" class="cls-1" d="M525.19,579.08H85.79"/>
  </g>
</svg>